PathFileType	3	(X/Y/Z)	D:\Jess\Healthy\Labelled\HA01\20250317\SRRun01.trc
DataRate	CameraRate	NumFrames	NumMarkers	Units	OrigDataRate	OrigDataStartFrame	OrigNumFrames
250.0	250.0	5	37	mm	250.0	35937	2501
Frame#	Time	C7			T10			CLAV			LSHO			RSHO			LASIS			RASIS			LPSIS			RPSIS			LILCR			RILCR			LGTR			LTHI			LLTHI			LLEP			LMEP			LPSH			LLSH			LDSH			LLMAL			LMMAL			LTOE			L5TH			LHEE			RGTR			RTHI			RLTHI			RLEP			RMEP			RPSH			RLSH			RDSH			RLMAL			RMMAL			RTOE			R5TH			RHEE			
		X1	Y1	Z1	X2	Y2	Z2	X3	Y3	Z3	X4	Y4	Z4	X5	Y5	Z5	X6	Y6	Z6	X7	Y7	Z7	X8	Y8	Z8	X9	Y9	Z9	X10	Y10	Z10	X11	Y11	Z11	X12	Y12	Z12	X13	Y13	Z13	X14	Y14	Z14	X15	Y15	Z15	X16	Y16	Z16	X17	Y17	Z17	X18	Y18	Z18	X19	Y19	Z19	X20	Y20	Z20	X21	Y21	Z21	X22	Y22	Z22	X23	Y23	Z23	X24	Y24	Z24	X25	Y25	Z25	X26	Y26	Z26	X27	Y27	Z27	X28	Y28	Z28	X29	Y29	Z29	X30	Y30	Z30	X31	Y31	Z31	X32	Y32	Z32	X33	Y33	Z33	X34	Y34	Z34	X35	Y35	Z35	X36	Y36	Z36	X37	Y37	Z37	

938	143.744	1080.470470363352	1503.142452303257	-327.398831514923	976.1550707213581	1295.720877919671	-314.0063385790343	1204.783675047649	1394.656881327414	-345.54630680194	1170.873919455343	1471.37323638765	-188.9224547900116	1129.581074159528	1473.14693820399	-484.6907183674563	1179.010480854474	977.8219418367274	-453.4872834546132	1184.320879263541	970.8919304194889	-199.3080530281432	982.3865819852577	1033.631621596734	-350.8885093762544	983.1103426486967	1034.841726831307	-298.1290911960566	1093.29158138504	1040.834400624057	-506.97234635376	1109.115879862253	1054.940920918077	-142.0950190489284	1115.928886203993	889.3706169525886	-524.9907207602457	1265.48433809963	806.5113199756655	-431.2029810473475	1238.719656798365	670.9765517145999	-486.9053350714873	1292.374294568667	554.7080016519445	-465.6814657381047	nan	nan	nan	1284.68306368869	454.6900278838692	-409.8050505501624	1125.349430143093	436.0797094402677	-463.5595447586356	1096.695402981744	325.8935205426292	-419.6005772037154	981.3907789934233	302.4578718824141	-443.9606968863233	nan	nan	nan	1014.712714658135	153.4615671396341	-458.8620995661507	963.8791120493969	175.6964177092983	-494.6027193535306	917.1905247974793	336.4002278005772	-381.5020425833472	1101.334456808153	887.8072642123216	-119.969626087641	1189.802003235096	748.1998124050962	-221.7855528697182	1087.229462608858	650.3560131905589	-153.923580571666	1045.827922733602	492.5378682449719	-176.2138303402047	nan	nan	nan	1057.142287230965	381.3173661810069	-234.0399216492562	928.4063268341164	323.934941624895	-201.3829728713871	928.9559382839293	213.1165202824539	-269.639428704975	834.9941596999682	157.7769228668189	-254.9680036152899	nan	nan	nan	938.9217805879381	60.17591283042714	-264.2355582157356	896.1194861121653	49.20733263865526	-221.0378658969474	749.7181092175607	154.3760434139228	-315.9344056394355	
939	143.748	1080.321542311406	1506.251926883188	-327.2324063005821	976.7947948056676	1298.511265299562	-312.3292310873173	1204.725907233467	1398.472907877245	-346.8347308311441	1172.075143841447	1475.001175154574	-189.7392986056695	1127.172435486608	1476.788146425821	-484.7899580339597	1178.558961208206	981.1752512210683	-454.7323554299381	1185.934503723259	972.3903559220606	-200.4760935266295	982.7007786669384	1036.891034635516	-349.733530794765	984.0475696936251	1037.910885147054	-296.637693821818	1092.298334927823	1045.014319306017	-506.868937415225	1113.082589584801	1056.683389473086	-142.5039329700326	1114.994166923596	894.2144448656998	-525.8439052380861	1265.607880475631	812.7720888065129	-432.7681411988961	1240.67935611466	676.6870711473867	-487.2779783951884	1294.850479584676	560.5748007724662	-466.0616397128851	nan	nan	nan	1289.742064006321	459.292936307975	-409.9519233894852	1130.818757631064	435.0103137251118	-463.4122121394545	1106.247218721529	324.0039560258838	-419.0826286875047	991.5462695092739	296.1440507269987	-443.0909699898462	nan	nan	nan	1029.994802190337	148.2212759334413	-457.4246951999318	978.1595274050786	168.3800268616983	-493.0492118964909	926.4210336822684	328.180988726248	-380.6374485345416	1102.39806295767	889.8398747277936	-120.4125006313392	1187.663111184916	749.2729731604697	-222.8149518400467	1082.952237873821	652.9500348054318	-154.6521011148166	1038.561978756762	496.1643809931389	-176.4551227601916	nan	nan	nan	1048.829605956164	384.3907527505989	-233.8532653284976	919.9416232563535	327.7886286057671	-201.0509513523147	920.5802273285677	216.2733965299512	-268.538213614662	826.7567467104427	160.6690846012622	-253.7910649369655	nan	nan	nan	928.2790855475002	60.36625656551992	-263.8931035273512	885.273885833388	49.76485779457036	-220.8424529293787	741.7157921252883	159.2516389632507	-314.704772737471	
940	143.752	1080.188271650947	1509.373670643179	-327.0893739049889	977.4590017928073	1301.313619488519	-310.6820709547737	1204.662712218412	1402.286798604907	-348.0995934407326	1173.253459264063	1478.634013808526	-190.5774021271471	1124.819609677015	1480.39111089416	-484.8213530585725	1178.203012610748	984.5612414041275	-455.8802882846853	1187.569382422187	973.9651856264983	-201.6080573979597	983.0916929734015	1040.177096822093	-348.59004105384	985.0714634919134	1041.009865863116	-295.1790705542835	1091.425052195777	1049.275131449287	-506.7306234041094	1117.157090755238	1058.44066135781	-142.9622479553443	1114.266406300645	899.2251556307382	-526.6443184975227	1265.740511614083	819.0381309389434	-434.2146458722477	1242.406439868174	682.3015741360124	-487.6336985600306	1296.902365170184	566.2701565965175	-466.42459959452	nan	nan	nan	1294.509429601844	463.7703534357987	-410.16883906511	1136.196645626607	433.7617929435728	-463.2315961931992	1115.826187399818	322.0590098863182	-418.5689528760824	1001.899942608	289.7564598771049	-442.1709717567442	nan	nan	nan	1045.478271000403	143.0958930595757	-456.0585752052623	992.6810484307691	161.1427138063335	-491.5054078588769	935.9467094317868	319.8102261540118	-379.6253020192571	1103.379271340899	891.962146980747	-120.8559129698552	1185.617843114581	750.4560522018561	-223.7994105652533	1078.822098225987	655.6623064131982	-155.3857478292284	1031.394026238197	500.0129993936305	-176.7095873239785	nan	nan	nan	1040.641080225815	387.649832653557	-233.5879137872267	911.5806844988489	331.8539122130634	-200.7028571610174	912.4620714011974	219.5662009252414	-267.3509404580465	818.8370246920258	163.6173760064348	-252.5455858724119	nan	nan	nan	917.775231068298	60.58423356709408	-263.5310663539729	874.5734623181537	50.38454606228913	-220.6237844987002	734.0843279616394	164.3086831066298	-313.3911989046144	
941	143.756	1080.072032325839	1512.487794862699	-326.9596353751804	978.149822902955	1304.109280273918	-309.0605091041922	1204.594723263397	1406.082394022218	-349.3380612707871	1174.409327503434	1482.253863912553	-191.4323954712471	1122.522540145958	1483.940808016622	-484.7845964120781	1177.938256654798	988.0022471831938	-456.923725641788	1189.21678589813	975.6168934154656	-202.706755402382	983.5529351250203	1043.47481466755	-347.4564992717521	986.1709704169444	1044.127595656337	-293.7576431534322	1090.66072499145	1053.60810303088	-506.5630167947734	1121.315357681658	1060.215126403452	-143.4797406297532	1113.735421452544	904.3778973349238	-527.3889668863015	1265.892270988989	825.2838828848486	-435.5284297847961	1243.885026091671	687.7865907101968	-487.9683264746574	1298.530533491318	571.7446595302406	-466.7652337303483	nan	nan	nan	1298.986556953415	468.0987476731681	-410.4571277410983	1141.497957594513	432.3228537698022	-463.0233439311319	1125.429326256153	320.0607128626492	-418.0633476919827	1012.451984189705	283.3163058783292	-441.2060560389529	nan	nan	nan	1061.153269408772	138.1130879953445	-454.7778333278029	1007.439555792182	154.0148743598244	-489.9851651740649	945.7762597457954	311.3133526684177	-378.4697432782995	1104.278666942679	894.1589635932405	-121.3038575684752	1183.667540110857	751.731717952158	-224.7438492374361	1074.841597368347	658.4835364435321	-156.1259966483438	1024.335728518386	504.0613249336295	-176.9877802722127	nan	nan	nan	1032.59581884113	391.0756524792162	-233.2566605084572	903.343891274568	336.1087752240664	-200.3466778617357	904.6130129699135	222.9792254919112	-266.0894222637081	811.2486488844577	166.6167972024815	-251.2360911568684	nan	nan	nan	907.4224232851667	60.83214876535478	-263.1543731433989	864.0361520815948	51.07824503742238	-220.3808830305495	726.8367934971184	169.5382708109506	-311.9855642560319	
942	143.76	1079.973824006866	1515.574150470763	-326.8333127087084	978.8709248568307	1306.878608051145	-307.4609346800148	1204.522842452165	1409.845102417742	-350.5477670751661	1175.542213074731	1485.844131392638	-192.3000342877694	1120.28048994123	1487.423946433305	-484.6804772767089	1177.759307504735	991.5164246990756	-457.8561553402289	1190.867250345198	977.3426164019447	-203.7745940758439	984.0775309019012	1046.7703140839	-346.3329955962332	987.334424212098	1047.25385308358	-292.3780341033089	1089.995131278321	1058.001830144096	-506.3712080039531	1125.532431948812	1062.007729080143	-144.0657956328779	1113.389080685748	909.6448932972039	-528.0764152242515	1266.070821711205	831.481535331192	-436.6995454445041	1245.09917077517	693.1096758441962	-488.2773005732598	1299.738975674414	576.9517753888559	-467.0792208575679	nan	nan	nan	1303.17520204735	472.2564664845942	-410.8165267218537	1146.737104383894	430.6841289552262	-462.7947513959116	1135.051583073419	318.0119033397008	-417.5696639807011	1023.199150261243	276.8446806325638	-440.2030344782905	nan	nan	nan	1077.007846674411	133.3013372125022	-453.5937852117225	1022.429197997231	147.0263576719158	-488.5010685103067	955.9136056432591	302.7162519550693	-377.1788698015425	1105.098832866083	896.4141668360788	-121.7609211375387	1181.81180094263	753.0824358563933	-225.6528844399766	1071.008485452757	661.4039925656558	-156.8755787031492	1017.401171911836	508.2850132249072	-177.3006017039414	nan	nan	nan	1024.714339725004	394.6479498004259	-232.8768440651235	895.2551163763337	340.528520432135	-199.990449401466	897.0427480837254	226.4957690171381	-264.767983964428	804.0023396773104	169.6633294945152	-249.8681435169528	nan	nan	nan	897.2321485171385	61.11362336288041	-262.7679506002676	853.6794926452716	51.85883559383888	-220.112750046789	719.9826158759226	174.929923366156	-310.4805067780566	
